{"title":"Elementary S02E19 HDTV x264 AAC E-Subs [GWC].mp4","uid":9887314,"size":123554814,"categoryP":"video","categoryS":"tv_shows","magnet":"?xt=urn:btih:8cc37b1071aae22977bc461419d0d36a24f74f61&amp;dn=Elementary+S02E19+HDTV+x264+AAC+E-Subs+%5BGWC%5D.mp4&amp;tr=udp%3A%2F%2Ftracker.openbittorrent.com%3A80&amp;tr=udp%3A%2F%2Fopen.demonii.com%3A1337&amp;tr=udp%3A%2F%2Ftracker.coppersurfer.tk%3A6969&amp;tr=udp%3A%2F%2Fexodus.desync.com%3A6969","seeders":3,"leechers":0,"uploader":"canc232","files":1,"time":1396600030,"description":"Elementary S02E19 HDTV x264 AAC E-Subs [GWC]\n\n\nSTORYLINE :\nA modern take on the cases of Sherlock Holmes, with the detective now living in New York City.\n\n\nSCREENS : &lt;a href=&quot;\nhttp://i.imgur.com/IBLWAyd.jpg&quot; rel=&quot;nofollow&quot; target=&quot;_NEW&quot;&gt;\nhttp://i.imgur.com/IBLWAyd.jpg&lt;/a&gt; &lt;a href=&quot;\nhttp://i.imgur.com/NF25XCt.jpg&quot; rel=&quot;nofollow&quot; target=&quot;_NEW&quot;&gt;\nhttp://i.imgur.com/NF25XCt.jpg&lt;/a&gt; &lt;a href=&quot;\nhttp://i.imgur.com/c2piKtH.jpg&quot; rel=&quot;nofollow&quot; target=&quot;_NEW&quot;&gt;\nhttp://i.imgur.com/c2piKtH.jpg&lt;/a&gt;\n\n\nMEDIA INFO :\nGeneral \nFormat : MPEG-4 \nFormat profile : Base Media \nFile size : 118 MiB \nDuration : 42mn 13s \nOverall bit rate mode : Variable \nOverall bit rate : 390 Kbps \n\nVideo \nFormat : AVC \nFormat profile : &lt;a class=&quot;__cf_email__&quot; href=&quot;/cdn-cgi/l/email-protection&quot; data-cfemail=&quot;561e3f313e161a657866&quot;&gt;[email&amp;#160;protected]&lt;/a&gt;&lt;script cf-hash='f9e31' type=&quot;text/javascript&quot;&gt;\n/* &lt;![CDATA[ */!function(){try{var t=&quot;currentScript&quot;in document?document.currentScript:function(){for(var t=document.getElementsByTagName(&quot;script&quot;),e=t.length;e--;)if(t[e].getAttribute(&quot;cf-hash&quot;))return t[e]}();if(t&amp;&amp;t.previousSibling){var e,r,n,i,c=t.previousSibling,a=c.getAttribute(&quot;data-cfemail&quot;);if(a){for(e=&quot;&quot;,r=parseInt(a.substr(0,2),16),n=2;a.length-n;n+=2)i=parseInt(a.substr(n,2),16)^r,e+=String.fromCharCode(i);e=document.createTextNode(e),c.parentNode.replaceChild(e,c)}}}catch(u){}}();/* ]]&gt; */&lt;/script&gt; \nFormat settings, CABAC : Yes \nFormat settings, ReFrames : 4 frames \nDuration : 42mn 12s \nBit rate : 327 Kbps \nMaximum bit rate : 1 842 Kbps \nWidth : 720 pixels \nHeight : 404 pixels \nFrame rate mode : Constant \nFrame rate : 23.976 fps \nStream size : 98.7 MiB (84%) \nTitle : Elementary S02E19 HDTV x264 AAC E-Subs [GWC] \nWriting library : x264 core\n\nAudio \nFormat : AAC \nFormat profile : HE-AAC / LC \nCodec ID : 40 \nDuration : 42mn 13s \nBit rate mode : Variable \nChannel(s) : 2 channels \nSampling rate : 48.0 KHz / 24.0 KHz \nStream size : 18.1 MiB (15%) \nLanguage : English \n\nText \nFormat : Timed Text \nTitle : English Subtitle by elderman \nLanguage : English \n\n","torrent":{"xt":"urn:btih:8cc37b1071aae22977bc461419d0d36a24f74f61","amp;dn":"Elementary+S02E19+HDTV+x264+AAC+E-Subs+%5BGWC%5D.mp4","amp;tr":["udp%3A%2F%2Ftracker.openbittorrent.com%3A80","udp%3A%2F%2Fopen.demonii.com%3A1337","udp%3A%2F%2Ftracker.coppersurfer.tk%3A6969","udp%3A%2F%2Fexodus.desync.com%3A6969"],"infoHash":"8cc37b1071aae22977bc461419d0d36a24f74f61","infoHashBuffer":{"type":"Buffer","data":[140,195,123,16,113,170,226,41,119,188,70,20,25,208,211,106,36,247,79,97]},"announce":[],"urlList":[]}}